<?xml version="1.0" encoding="UTF-8"?>
<svg version="1.1" xmlns="http://www.w3.org/2000/svg" width="500" height="500">
<path d="M0 0 C165 0 330 0 500 0 C500 165 500 330 500 500 C335 500 170 500 0 500 C0 335 0 170 0 0 Z " fill="#FEFEFE" transform="translate(0,0)"/>
<path d="M0 0 C10.50821411 7.4022464 16.4029991 16.26316427 20.20703125 28.5546875 C20.53703125 29.5446875 20.86703125 30.5346875 21.20703125 31.5546875 C21.79650081 41.33761499 21.20276975 50.13950937 18.20703125 59.5546875 C18.95726562 60.02777344 19.7075 60.50085938 20.48046875 60.98828125 C27.69242147 65.64789302 33.9892573 70.62003461 40.20703125 76.5546875 C40.80902344 77.08191406 41.41101563 77.60914063 42.03125 78.15234375 C57.11044792 91.89585514 66.99086347 114.51237135 68.43017578 134.68164062 C69.06401863 148.47119978 68.82525924 161.46251468 64.20703125 174.5546875 C63.89354736 175.48812988 63.89354736 175.48812988 63.57373047 176.44042969 C55.15251662 201.23096932 36.90351852 221.01861197 13.5234375 232.578125 C7.25548687 235.53022722 0.88984039 237.72230435 -5.79296875 239.5546875 C-6.664375 239.79960937 -7.53578125 240.04453125 -8.43359375 240.296875 C-32.43420599 245.80644951 -58.69330013 239.84881927 -79.41235352 227.22851562 C-85.89640749 223.06407995 -91.3297504 217.95158453 -96.79296875 212.5546875 C-97.77330078 211.68263672 -97.77330078 211.68263672 -98.7734375 210.79296875 C-113.25770598 197.63449144 -122.86970961 174.66906149 -123.9699707 155.46533203 C-124.5153583 126.29252757 -124.5153583 126.29252757 -119.79296875 113.5546875 C-119.43887939 112.57701416 -119.43887939 112.57701416 -119.07763672 111.57958984 C-115.18678534 101.07604714 -109.71582261 92.31556456 -102.79296875 83.5546875 C-102.15746094 82.73484375 -101.52195312 81.915 -100.8671875 81.0703125 C-94.18546779 73.00074094 -85.05040933 65.52049044 -75.79296875 60.5546875 C-75.13296875 60.5546875 -74.47296875 60.5546875 -73.79296875 60.5546875 C-74.08171875 59.801875 -74.37046875 59.0490625 -74.66796875 58.2734375 C-79.22157046 45.24507706 -79.82127728 32.32051733 -73.79296875 19.5546875 C-66.41913606 5.82913755 -56.22375906 -3.15141392 -41.19140625 -7.75 C-26.64165714 -10.72684522 -12.48863734 -8.11055284 0 0 Z " fill="#272633" transform="translate(396.79296875,81.4453125)"/>
<path d="M0 0 C0.90958969 -0.01871658 1.81917938 -0.03743317 2.7563324 -0.05671692 C3.76246582 -0.07197418 4.76859924 -0.08723145 5.80522156 -0.10295105 C6.85898483 -0.12237259 7.91274811 -0.14179413 8.9984436 -0.1618042 C18.75538257 -0.33092648 28.51344268 -0.42736901 38.27151203 -0.50287342 C44.82775154 -0.55420687 51.38187838 -0.62853337 57.9370575 -0.75920105 C64.27323584 -0.88501814 70.6075096 -0.95128103 76.94486046 -0.97646141 C79.35507735 -0.99603624 81.76522267 -1.03636738 84.17472267 -1.09832191 C105.03210139 -1.60944387 105.03210139 -1.60944387 111.61954784 4.39257526 C113.92161244 6.86396389 115.84939777 9.4287892 117.7844696 12.20100403 C118.87418323 13.4842521 119.97423834 14.75904164 121.0969696 16.01350403 C121.61646179 16.62580872 122.13595398 17.2381134 122.67118835 17.86897278 C126.40412916 21.9883178 130.40023006 25.85484009 134.36772156 29.74714661 C137.26703442 32.60757764 140.05321286 35.45205685 142.60868835 38.62678528 C144.9542052 41.40182226 145.50787707 41.41010238 148.7844696 42.20100403 C149.9719696 44.70100403 149.9719696 44.70100403 150.7844696 47.20100403 C151.1144696 47.53100403 151.4444696 47.86100403 151.7844696 48.20100403 C151.94427398 50.647094 152.04376407 53.06831461 152.10087585 55.51741028 C152.12165695 56.24846481 152.14243805 56.97951935 152.16384888 57.73272705 C152.22941984 60.07622059 152.28826392 62.41982941 152.3469696 64.76350403 C152.39014768 66.34880258 152.43376173 67.93408932 152.47782898 69.5193634 C152.5851088 73.4131244 152.6863545 77.30700175 152.7844696 81.20100403 C153.04550476 80.6736969 153.30653992 80.14638977 153.57548523 79.60310364 C154.80949347 77.11374595 156.0468481 74.62606726 157.2844696 72.13850403 C157.73282166 71.23414612 158.18117371 70.32978821 158.64311218 69.39802551 C160.774497 65.12280929 162.93103652 60.87751117 165.26493835 56.70881653 C165.63876648 56.03729553 166.0125946 55.36577454 166.39775085 54.67390442 C167.09769502 53.42911736 167.80942818 52.19086351 168.5344696 50.96052551 C170.11273026 48.14539238 170.81936533 46.54763492 170.49150085 43.29084778 C170.25818054 42.60119934 170.02486023 41.9115509 169.7844696 41.20100403 C176.4094696 39.20100403 176.4094696 39.20100403 179.7844696 39.20100403 C179.7844696 40.52100403 179.7844696 41.84100403 179.7844696 43.20100403 C180.5888446 43.40725403 181.3932196 43.61350403 182.2219696 43.82600403 C186.89494261 45.62960764 190.71062964 48.32215712 194.7844696 51.20100403 C194.19228484 56.21483505 191.91027799 60.09108448 189.5344696 64.45100403 C188.622177 66.15368229 187.71076397 67.85683203 186.8000946 69.56037903 C186.06822937 70.92452942 186.06822937 70.92452942 185.32157898 72.3162384 C182.60068388 77.4226705 179.94651507 82.56372331 177.2844696 87.70100403 C173.36361905 95.25146489 169.43393115 102.7970233 165.4719696 110.32600403 C165.11232117 111.00985168 164.75267273 111.69369934 164.38212585 112.39826965 C164.02376648 113.07825012 163.6654071 113.75823059 163.29618835 114.45881653 C162.92421326 115.198255 162.55223816 115.93769348 162.16899109 116.69953918 C160.7844696 119.20100403 160.7844696 119.20100403 158.74565125 122.05793762 C150.22037147 134.6349414 151.7047949 148.94197118 151.8469696 163.57600403 C151.85370252 167.53074819 151.83751264 171.48544683 151.82510376 175.44017029 C151.82150176 177.88742193 151.82785667 180.3347121 151.84503174 182.78190613 C151.85090805 183.87459808 151.85678436 184.96729004 151.86283875 186.09309387 C151.8714241 187.05822906 151.88000946 188.02336426 151.88885498 189.01774597 C151.7844696 191.20100403 151.7844696 191.20100403 150.7844696 192.20100403 C148.78716127 192.29992131 146.78630098 192.32732677 144.7865448 192.32798767 C143.48242142 192.3308075 142.17829803 192.33362732 140.83465576 192.33653259 C139.37586961 192.33458799 137.9170836 192.3325398 136.45829773 192.33039856 C134.93269814 192.33175254 133.40709888 192.33353245 131.88150024 192.33570862 C127.72665805 192.34028337 123.57184056 192.33849322 119.41699791 192.33532953 C115.07859096 192.33280615 110.7401862 192.33514341 106.40177917 192.3367157 C99.11478799 192.33853746 91.82780692 192.33613092 84.54081726 192.33137512 C76.10375104 192.32593249 67.66670898 192.32769514 59.22964334 192.33320153 C51.99909206 192.33773248 44.76854806 192.3383833 37.53799582 192.33576286 C33.21366066 192.33419998 28.88933688 192.3340066 24.56500244 192.33729935 C20.50049261 192.3401778 16.43601408 192.33820285 12.37150764 192.33240509 C10.87547419 192.33107735 9.37943812 192.33147184 7.88340569 192.33366776 C5.84973619 192.33637869 3.81606096 192.33238494 1.78239441 192.32798767 C0.64159172 192.32761065 -0.49921097 192.32723362 -1.67458344 192.32684517 C-4.2155304 192.20100403 -4.2155304 192.20100403 -5.2155304 191.20100403 C-5.31544376 188.74959593 -5.34994879 186.32630242 -5.34251404 183.87434387 C-5.34407403 183.09832006 -5.34563402 182.32229626 -5.34724128 181.52275658 C-5.35125435 178.90246601 -5.34806046 176.2822326 -5.34492493 173.66194153 C-5.34627883 171.79151882 -5.3480587 169.92109637 -5.35023499 168.05067444 C-5.3548106 162.95578107 -5.35301923 157.86090784 -5.3498559 152.7660141 C-5.34733296 147.4466547 -5.34966965 142.12729708 -5.35124207 136.80793762 C-5.35306395 127.87320138 -5.35065695 118.93847339 -5.34590149 110.0037384 C-5.34045883 99.65806861 -5.34222148 89.31241851 -5.34772789 78.96674919 C-5.35225848 70.1013923 -5.35290984 61.23604135 -5.35028923 52.37068367 C-5.34872615 47.06825055 -5.34853352 41.7658267 -5.35182571 36.46339417 C-5.35470363 31.47961754 -5.3527302 26.49586644 -5.34693146 21.51209259 C-5.34560343 19.677422 -5.34599869 17.84274928 -5.34819412 16.00807953 C-5.35090397 13.51457824 -5.34752655 11.0211601 -5.34251404 8.52766418 C-5.34474476 7.79197897 -5.34697548 7.05629375 -5.3492738 6.29831505 C-5.32489548 0.09826017 -5.32489548 0.09826017 0 0 Z " fill="#FDFDFD" transform="translate(28.215530395507813,283.7989959716797)"/>
<path d="M0 0 C8.32257347 7.08790597 16.08615558 16.37064639 17.34960938 27.7019043 C18.55894942 51.14773666 9.28145558 64.61135505 -3.12890625 83.96289062 C-13.596358 100.29633043 -22.32380506 117.02544263 -27.875 135.6875 C-29.45631441 132.65697988 -30.72799272 129.5851957 -31.94140625 126.390625 C-38.70333818 108.84463648 -46.74879683 93.79286199 -57.05541992 78.13452148 C-60.53690626 72.82424082 -63.87272058 67.46429399 -67 61.9375 C-67.35384766 61.31875 -67.70769531 60.7 -68.07226562 60.0625 C-72.41170212 52.2498159 -74.37324093 45.73974109 -74.25 36.75 C-74.26160156 35.90759766 -74.27320313 35.06519531 -74.28515625 34.19726562 C-74.23051421 22.3672644 -69.24200834 12.22614629 -61.375 3.5 C-45.07224065 -12.01442475 -17.89160236 -13.06656387 0 0 Z " fill="#F7A5B4" transform="translate(396.875,85.3125)"/>
<path d="M0 0 C0.90958969 -0.01871658 1.81917938 -0.03743317 2.7563324 -0.05671692 C3.76246582 -0.07197418 4.76859924 -0.08723145 5.80522156 -0.10295105 C6.85898483 -0.12237259 7.91274811 -0.14179413 8.9984436 -0.1618042 C18.75538257 -0.33092648 28.51344268 -0.42736901 38.27151203 -0.50287342 C44.82775154 -0.55420687 51.38187838 -0.62853337 57.9370575 -0.75920105 C64.27323584 -0.88501814 70.6075096 -0.95128103 76.94486046 -0.97646141 C79.35507735 -0.99603624 81.76522267 -1.03636738 84.17472267 -1.09832191 C105.03210139 -1.60944387 105.03210139 -1.60944387 111.61954784 4.39257526 C113.92161244 6.86396389 115.84939777 9.4287892 117.7844696 12.20100403 C118.87418323 13.4842521 119.97423834 14.75904164 121.0969696 16.01350403 C121.61646179 16.62580872 122.13595398 17.2381134 122.67118835 17.86897278 C126.40412916 21.9883178 130.40023006 25.85484009 134.36772156 29.74714661 C137.26703442 32.60757764 140.05321286 35.45205685 142.60868835 38.62678528 C144.9542052 41.40182226 145.50787707 41.41010238 148.7844696 42.20100403 C149.9719696 44.70100403 149.9719696 44.70100403 150.7844696 47.20100403 C151.1144696 47.53100403 151.4444696 47.86100403 151.7844696 48.20100403 C151.94427398 50.647094 152.04376407 53.06831461 152.10087585 55.51741028 C152.12165695 56.24846481 152.14243805 56.97951935 152.16384888 57.73272705 C152.22941984 60.07622059 152.28826392 62.41982941 152.3469696 64.76350403 C152.39014768 66.34880258 152.43376173 67.93408932 152.47782898 69.5193634 C152.5851088 73.4131244 152.6863545 77.30700175 152.7844696 81.20100403 C153.04550476 80.6736969 153.30653992 80.14638977 153.57548523 79.60310364 C154.80949347 77.11374595 156.0468481 74.62606726 157.2844696 72.13850403 C157.73282166 71.23414612 158.18117371 70.32978821 158.64311218 69.39802551 C160.774497 65.12280929 162.93103652 60.87751117 165.26493835 56.70881653 C165.63876648 56.03729553 166.0125946 55.36577454 166.39775085 54.67390442 C167.09769502 53.42911736 167.80942818 52.19086351 168.5344696 50.96052551 C170.11273026 48.14539238 170.81936533 46.54763492 170.49150085 43.29084778 C170.25818054 42.60119934 170.02486023 41.9115509 169.7844696 41.20100403 C176.4094696 39.20100403 176.4094696 39.20100403 179.7844696 39.20100403 C179.7844696 40.52100403 179.7844696 41.84100403 179.7844696 43.20100403 C180.5888446 43.40725403 181.3932196 43.61350403 182.2219696 43.82600403 C186.89494261 45.62960764 190.71062964 48.32215712 194.7844696 51.20100403 C194.19228484 56.21483505 191.91027799 60.09108448 189.5344696 64.45100403 C188.622177 66.15368229 187.71076397 67.85683203 186.8000946 69.56037903 C186.06822937 70.92452942 186.06822937 70.92452942 185.32157898 72.3162384 C182.60068388 77.4226705 179.94651507 82.56372331 177.2844696 87.70100403 C173.36361905 95.25146489 169.43393115 102.7970233 165.4719696 110.32600403 C165.11232117 111.00985168 164.75267273 111.69369934 164.38212585 112.39826965 C164.02376648 113.07825012 163.6654071 113.75823059 163.29618835 114.45881653 C162.92421326 115.198255 162.55223816 115.93769348 162.16899109 116.69953918 C160.7844696 119.20100403 160.7844696 119.20100403 158.74565125 122.05793762 C150.22037147 134.6349414 151.7047949 148.94197118 151.8469696 163.57600403 C151.85370252 167.53074819 151.83751264 171.48544683 151.82510376 175.44017029 C151.82150176 177.88742193 151.82785667 180.3347121 151.84503174 182.78190613 C151.85090805 183.87459808 151.85678436 184.96729004 151.86283875 186.09309387 C151.8714241 187.05822906 151.88000946 188.02336426 151.88885498 189.01774597 C151.7844696 191.20100403 151.7844696 191.20100403 150.7844696 192.20100403 C148.78716127 192.29992131 146.78630098 192.32732677 144.7865448 192.32798767 C143.48242142 192.3308075 142.17829803 192.33362732 140.83465576 192.33653259 C139.37586961 192.33458799 137.9170836 192.3325398 136.45829773 192.33039856 C134.93269814 192.33175254 133.40709888 192.33353245 131.88150024 192.33570862 C127.72665805 192.34028337 123.57184056 192.33849322 119.41699791 192.33532953 C115.07859096 192.33280615 110.7401862 192.33514341 106.40177917 192.3367157 C99.11478799 192.33853746 91.82780692 192.33613092 84.54081726 192.33137512 C76.10375104 192.32593249 67.66670898 192.32769514 59.22964334 192.33320153 C51.99909206 192.33773248 44.76854806 192.3383833 37.53799582 192.33576286 C33.21366066 192.33419998 28.88933688 192.3340066 24.56500244 192.33729935 C20.50049261 192.3401778 16.43601408 192.33820285 12.37150764 192.33240509 C10.87547419 192.33107735 9.37943812 192.33147184 7.88340569 192.33366776 C5.84973619 192.33637869 3.81606096 192.33238494 1.78239441 192.32798767 C0.64159172 192.32761065 -0.49921097 192.32723362 -1.67458344 192.32684517 C-4.2155304 192.20100403 -4.2155304 192.20100403 -5.2155304 191.20100403 C-5.31544376 188.74959593 -5.34994879 186.32630242 -5.34251404 183.87434387 C-5.34407403 183.09832006 -5.34563402 182.32229626 -5.34724128 181.52275658 C-5.35125435 178.90246601 -5.34806046 176.2822326 -5.34492493 173.66194153 C-5.34627883 171.79151882 -5.3480587 169.92109637 -5.35023499 168.05067444 C-5.3548106 162.95578107 -5.35301923 157.86090784 -5.3498559 152.7660141 C-5.34733296 147.4466547 -5.34966965 142.12729708 -5.35124207 136.80793762 C-5.35306395 127.87320138 -5.35065695 118.93847339 -5.34590149 110.0037384 C-5.34045883 99.65806861 -5.34222148 89.31241851 -5.34772789 78.96674919 C-5.35225848 70.1013923 -5.35290984 61.23604135 -5.35028923 52.37068367 C-5.34872615 47.06825055 -5.34853352 41.7658267 -5.35182571 36.46339417 C-5.35470363 31.47961754 -5.3527302 26.49586644 -5.34693146 21.51209259 C-5.34560343 19.677422 -5.34599869 17.84274928 -5.34819412 16.00807953 C-5.35090397 13.51457824 -5.34752655 11.0211601 -5.34251404 8.52766418 C-5.34474476 7.79197897 -5.34697548 7.05629375 -5.3492738 6.29831505 C-5.32489548 0.09826017 -5.32489548 0.09826017 0 0 Z M1.7844696 6.20100403 C1.7844696 65.60100403 1.7844696 125.00100403 1.7844696 186.20100403 C49.3044696 186.20100403 96.8244696 186.20100403 145.7844696 186.20100403 C145.7844696 171.35100403 145.7844696 156.50100403 145.7844696 141.20100403 C141.8244696 144.17100403 141.8244696 144.17100403 137.7844696 147.20100403 C133.7844696 150.20100403 133.7844696 150.20100403 129.7844696 150.20100403 C129.75697045 147.90940766 129.73785272 145.61771035 129.7219696 143.32600403 C129.71036804 142.04983215 129.69876648 140.77366028 129.68681335 139.45881653 C129.71737397 138.03950142 129.75002468 136.62023018 129.7844696 135.20100403 C129.77165955 134.44134338 129.75884949 133.68168274 129.74565125 132.89900208 C129.9429297 126.06161947 132.58255637 121.86830391 136.20805359 116.1900177 C148.78530267 96.28496272 147.34133032 76.00781593 145.7844696 53.20100403 C145.23545486 53.19069656 144.68644012 53.1803891 144.12078857 53.16976929 C138.4272568 53.06192455 132.73389039 52.94730954 127.04057312 52.82868958 C124.91332953 52.7852698 122.7860495 52.7436001 120.65873718 52.70368958 C117.60808809 52.64615696 114.55762372 52.58241436 111.50712585 52.51741028 C110.54984085 52.50069778 109.59255585 52.48398529 108.60626221 52.46676636 C107.72542465 52.44682114 106.8445871 52.42687592 105.9370575 52.40632629 C105.15762283 52.39078201 104.37818817 52.37523773 103.57513428 52.35922241 C101.7844696 52.20100403 101.7844696 52.20100403 100.7844696 51.20100403 C100.4544696 36.35100403 100.1244696 21.50100403 99.7844696 6.20100403 C67.4444696 6.20100403 35.1044696 6.20100403 1.7844696 6.20100403 Z " fill="#282734" transform="translate(28.215530395507813,283.7989959716797)"/>
<path d="M0 0 C1.3303125 0.00773437 1.3303125 0.00773437 2.6875 0.015625 C3.574375 0.01046875 4.46125 0.0053125 5.375 0 C7.6875 0.265625 7.6875 0.265625 9.6875 2.265625 C10.08797444 4.58837677 10.4272104 6.92301857 10.6875 9.265625 C12.9890411 10.04364687 12.9890411 10.04364687 15.6875 10.265625 C16.3475 9.770625 17.0075 9.275625 17.6875 8.765625 C19.6875 7.265625 19.6875 7.265625 22.125 7.265625 C25.61302155 8.62680414 27.40602462 10.31312746 29.6875 13.265625 C29.60248029 16.83645298 28.69163395 18.25942407 26.6875 21.265625 C26.9996764 23.91194787 26.9996764 23.91194787 27.6875 26.265625 C28.25339844 26.39839844 28.81929687 26.53117187 29.40234375 26.66796875 C30.13582031 26.84457031 30.86929688 27.02117187 31.625 27.203125 C32.72134766 27.46416016 32.72134766 27.46416016 33.83984375 27.73046875 C35.6875 28.265625 35.6875 28.265625 36.6875 29.265625 C36.75955511 30.95171466 36.77136068 32.64063159 36.75 34.328125 C36.74097656 35.24722656 36.73195313 36.16632813 36.72265625 37.11328125 C36.71105469 37.82355469 36.69945313 38.53382813 36.6875 39.265625 C33.35438525 41.0481168 30.44269057 41.75355356 26.6875 42.265625 C27.01710216 47.28097552 27.01710216 47.28097552 29.6875 51.265625 C29.59088088 54.84053248 28.66141225 56.29895935 26.4375 59.140625 C23.6875 61.265625 23.6875 61.265625 21.0625 61.203125 C18.6875 60.265625 18.6875 60.265625 15.6875 58.265625 C13.06218476 58.09848931 13.06218476 58.09848931 10.6875 58.265625 C10.0275 61.235625 9.3675 64.205625 8.6875 67.265625 C4.7756379 68.24359053 1.69507582 68.4882681 -2.3125 68.265625 C-5.26433101 65.31379399 -5.39913988 62.31050553 -6.3125 58.265625 C-9.41624171 58.00697986 -10.84015486 57.90778778 -13.375 59.828125 C-15.3125 61.265625 -15.3125 61.265625 -17.23046875 61.046875 C-19.64103654 60.14234675 -20.81177184 59.07322099 -22.5625 57.203125 C-23.08328125 56.65527344 -23.6040625 56.10742188 -24.140625 55.54296875 C-24.52734375 55.12144531 -24.9140625 54.69992187 -25.3125 54.265625 C-24.18798273 51.2936865 -23.08956209 48.93121813 -21.3125 46.265625 C-21.62090599 44.11287552 -21.62090599 44.11287552 -22.3125 42.265625 C-22.87839844 42.13285156 -23.44429687 42.00007813 -24.02734375 41.86328125 C-24.76082031 41.68667969 -25.49429688 41.51007813 -26.25 41.328125 C-26.98089844 41.15410156 -27.71179687 40.98007812 -28.46484375 40.80078125 C-30.3125 40.265625 -30.3125 40.265625 -31.3125 39.265625 C-31.38476502 37.41274998 -31.3963122 35.55728622 -31.375 33.703125 C-31.36597656 32.69121094 -31.35695312 31.67929687 -31.34765625 30.63671875 C-31.33605469 29.85425781 -31.32445312 29.07179688 -31.3125 28.265625 C-29.6728125 27.8015625 -29.6728125 27.8015625 -28 27.328125 C-25.75842006 26.68224603 -23.5255649 26.0033133 -21.3125 25.265625 C-21.75953986 20.78678804 -21.75953986 20.78678804 -24.3125 17.265625 C-24.875 15.015625 -24.875 15.015625 -24.3125 12.265625 C-22.17488067 10.00006836 -19.8101288 8.1197321 -17.3125 6.265625 C-14.39732708 7.33963608 -12.53439824 8.04372676 -10.3125 10.265625 C-7.70969432 9.94521103 -7.70969432 9.94521103 -5.3125 9.265625 C-5.18875 8.151875 -5.065 7.038125 -4.9375 5.890625 C-4.00111421 0.45958744 -4.00111421 0.45958744 0 0 Z " fill="#F6F6F7" transform="translate(74.3125,304.734375)"/>
<path d="M0 0 C0.20301824 6.45900699 0.34300606 12.91719091 0.43945312 19.37866211 C0.47965963 21.57591494 0.53423585 23.77295406 0.60351562 25.96948242 C0.70069421 29.12993015 0.74595337 32.28754866 0.78125 35.44921875 C0.82254028 36.42960617 0.86383057 37.40999359 0.90637207 38.42008972 C0.91074347 45.0799501 0.91074347 45.0799501 -1.69483948 47.7121582 C-6.10592409 50.54995778 -10.91140558 52.21867486 -15.9375 53.625 C-17.33607116 54.03991431 -18.73450962 54.45527619 -20.1328125 54.87109375 C-20.79700195 55.06429199 -21.46119141 55.25749023 -22.14550781 55.45654297 C-29.38389099 57.5242713 -29.38389099 57.5242713 -36 61 C-36.20753906 59.9584375 -36.41507812 58.916875 -36.62890625 57.84375 C-40.67175218 38.62214303 -48.33526676 22.69578659 -61.921875 8.25390625 C-64.07173174 5.92220073 -66.04519988 3.49633258 -68 1 C-46.57570897 -6.2898237 -21.08596443 -10.92818164 0 0 Z " fill="#EBEBEC" transform="translate(500,152)"/>
<path d="M0 0 C2.90112737 2.0989217 4.58089975 4.80655344 6.4375 7.8046875 C6.8296167 8.43205811 7.2217334 9.05942871 7.62573242 9.70581055 C13.01245625 18.4944432 17.00977755 27.27789866 19.4375 37.3046875 C19.60548096 37.99796143 19.77346191 38.69123535 19.9465332 39.40551758 C21.04791713 44.38643863 21.0625 48.08402092 21.0625 53.4921875 C8.1925 53.4921875 -4.6775 53.4921875 -17.9375 53.4921875 C-18.205625 50.3365625 -18.47375 47.1809375 -18.75 43.9296875 C-19.46313065 36.03562529 -20.58592914 28.43860372 -22.2734375 20.69140625 C-23.11659534 16.62936935 -23.57523541 12.62200379 -23.9375 8.4921875 C-23.0196875 8.17765625 -22.101875 7.863125 -21.15625 7.5390625 C-19.9290625 7.11109375 -18.701875 6.683125 -17.4375 6.2421875 C-16.7976416 6.01909912 -16.1577832 5.79601074 -15.49853516 5.56616211 C-11.93741073 4.29690847 -8.61335187 2.89337495 -5.3125 1.0546875 C-1.9375 -0.5078125 -1.9375 -0.5078125 0 0 Z " fill="#E9E9EB" transform="translate(436.9375,169.5078125)"/>
<path d="M0 0 C3.30291982 0.6913088 6.08941962 1.91473538 9.125 3.375 C14.30316335 5.77939617 19.4903737 7.52996955 25 9 C24.71056582 10.79202867 24.41830221 12.58360035 24.125 14.375 C23.96257812 15.37273437 23.80015625 16.37046875 23.6328125 17.3984375 C23.29099241 19.34385803 22.93806332 21.28812919 22.52294922 23.21923828 C21.10369901 29.83312977 20.39848287 36.38625882 19.875 43.125 C19.58625 46.71375 19.2975 50.3025 19 54 C6.13 54 -6.74 54 -20 54 C-18.82741278 37.58377893 -18.82741278 37.58377893 -16.9375 31.5625 C-16.72343506 30.8600415 -16.50937012 30.15758301 -16.28881836 29.43383789 C-12.79921358 18.63048694 -7.16952311 8.78266582 0 0 Z " fill="#FBFBFB" transform="translate(300,169)"/>
<path d="M0 0 C12.87 0 25.74 0 39 0 C40.3125 13.75 40.3125 13.75 40.7043457 18.00683594 C41.40565615 25.04662879 42.47461911 31.70863317 44.40307617 38.52050781 C45 41 45 41 45 45 C43.74896484 45.34611328 43.74896484 45.34611328 42.47265625 45.69921875 C36.04930787 47.56073896 30.47247039 49.50025981 24.90234375 53.2421875 C23 54 23 54 20.96484375 53.40625 C8.94038131 44.80027291 3.33142464 24.89905263 0.36328125 11.0234375 C-0.07531094 7.37321864 0 3.67647397 0 0 Z " fill="#FCFCFD" transform="translate(280,230)"/>
<path d="M0 0 C12.87 0 25.74 0 39 0 C36.95035005 20.49649949 31.15900693 37.90397183 18 54 C17.34257812 53.73316406 16.68515625 53.46632813 16.0078125 53.19140625 C12.31341858 51.72804242 8.59639002 50.33047933 4.875 48.9375 C3.80185547 48.5343457 3.80185547 48.5343457 2.70703125 48.12304688 C-0.18346004 47.03978799 -3.07131845 45.97622718 -6 45 C-5.16894219 36.74136301 -3.83480576 28.59753866 -2.4609375 20.4140625 C-2.20183594 18.83625 -2.20183594 18.83625 -1.9375 17.2265625 C-1.78152344 16.29408691 -1.62554687 15.36161133 -1.46484375 14.40087891 C-0.81141324 9.620266 -0.43684066 4.80524728 0 0 Z " fill="#FDFDFD" transform="translate(419,230)"/>
<path d="M0 0 C12.87 0 25.74 0 39 0 C39 16.26492537 39 16.26492537 37.6875 24.375 C37.56955078 25.19871094 37.45160156 26.02242188 37.33007812 26.87109375 C36.49904378 32.24937759 35.06613885 36.96487171 33 42 C32.34153076 41.94013916 31.68306152 41.88027832 31.00463867 41.81860352 C29.06477865 41.6422526 27.12491862 41.46590169 25.18505859 41.28955078 C22.10742188 41.00976562 22.10742188 41.00976562 19.02978516 40.72998047 C18.06733887 40.64248535 17.10489258 40.55499023 16.11328125 40.46484375 C8.05664062 39.73242188 8.05664062 39.73242188 0 39 C0 26.13 0 13.26 0 0 Z " fill="#FDFDFD" transform="translate(372,230)"/>
<path d="M0 0 C12.87 0 25.74 0 39 0 C39 12.87 39 25.74 39 39 C28.8125 39.9375 28.8125 39.9375 25.62817383 40.22631836 C24.78794678 40.30503174 23.94771973 40.38374512 23.08203125 40.46484375 C22.22843018 40.543396 21.3748291 40.62194824 20.49536133 40.70288086 C17.97449554 40.96765803 17.97449554 40.96765803 15.4206543 41.52954102 C12.25937497 42.14394195 9.2113748 42.06296813 6 42 C3.74967663 34.47775341 2.26088502 27.10169502 1.3125 19.3125 C1.18294922 18.33216797 1.05339844 17.35183594 0.91992188 16.34179688 C0.21384639 10.76417414 0 5.70055804 0 0 Z " fill="#FDFDFD" transform="translate(326,230)"/>
<path d="M0 0 C1.3303125 0.00773437 1.3303125 0.00773437 2.6875 0.015625 C3.574375 0.01046875 4.46125 0.0053125 5.375 0 C7.6875 0.265625 7.6875 0.265625 9.6875 2.265625 C10.08797444 4.58837677 10.4272104 6.92301857 10.6875 9.265625 C12.9890411 10.04364687 12.9890411 10.04364687 15.6875 10.265625 C16.3475 9.770625 17.0075 9.275625 17.6875 8.765625 C19.6875 7.265625 19.6875 7.265625 22.125 7.265625 C25.61302155 8.62680414 27.40602462 10.31312746 29.6875 13.265625 C29.60248029 16.83645298 28.69163395 18.25942407 26.6875 21.265625 C26.9996764 23.91194787 26.9996764 23.91194787 27.6875 26.265625 C28.25339844 26.39839844 28.81929687 26.53117187 29.40234375 26.66796875 C30.13582031 26.84457031 30.86929688 27.02117187 31.625 27.203125 C32.72134766 27.46416016 32.72134766 27.46416016 33.83984375 27.73046875 C35.6875 28.265625 35.6875 28.265625 36.6875 29.265625 C36.75955511 30.95171466 36.77136068 32.64063159 36.75 34.328125 C36.74097656 35.24722656 36.73195313 36.16632813 36.72265625 37.11328125 C36.71105469 37.82355469 36.69945313 38.53382813 36.6875 39.265625 C33.35438525 41.0481168 30.44269057 41.75355356 26.6875 42.265625 C27.01710216 47.28097552 27.01710216 47.28097552 29.6875 51.265625 C29.59088088 54.84053248 28.66141225 56.29895935 26.4375 59.140625 C23.6875 61.265625 23.6875 61.265625 21.0625 61.203125 C18.6875 60.265625 18.6875 60.265625 15.6875 58.265625 C13.06218476 58.09848931 13.06218476 58.09848931 10.6875 58.265625 C10.0275 61.235625 9.3675 64.205625 8.6875 67.265625 C4.7756379 68.24359053 1.69507582 68.4882681 -2.3125 68.265625 C-5.26433101 65.31379399 -5.39913988 62.31050553 -6.3125 58.265625 C-9.41624171 58.00697986 -10.84015486 57.90778778 -13.375 59.828125 C-15.3125 61.265625 -15.3125 61.265625 -17.23046875 61.046875 C-19.64103654 60.14234675 -20.81177184 59.07322099 -22.5625 57.203125 C-23.08328125 56.65527344 -23.6040625 56.10742188 -24.140625 55.54296875 C-24.52734375 55.12144531 -24.9140625 54.69992187 -25.3125 54.265625 C-24.18798273 51.2936865 -23.08956209 48.93121813 -21.3125 46.265625 C-21.62090599 44.11287552 -21.62090599 44.11287552 -22.3125 42.265625 C-22.87839844 42.13285156 -23.44429687 42.00007813 -24.02734375 41.86328125 C-24.76082031 41.68667969 -25.49429688 41.51007813 -26.25 41.328125 C-26.98089844 41.15410156 -27.71179687 40.98007812 -28.46484375 40.80078125 C-30.3125 40.265625 -30.3125 40.265625 -31.3125 39.265625 C-31.38476502 37.41274998 -31.3963122 35.55728622 -31.375 33.703125 C-31.36597656 32.69121094 -31.35695312 31.67929687 -31.34765625 30.63671875 C-31.33605469 29.85425781 -31.32445312 29.07179688 -31.3125 28.265625 C-29.6728125 27.8015625 -29.6728125 27.8015625 -28 27.328125 C-25.75842006 26.68224603 -23.5255649 26.0033133 -21.3125 25.265625 C-21.75953986 20.78678804 -21.75953986 20.78678804 -24.3125 17.265625 C-24.875 15.015625 -24.875 15.015625 -24.3125 12.265625 C-22.17488067 10.00006836 -19.8101288 8.1197321 -17.3125 6.265625 C-14.39732708 7.33963608 -12.53439824 8.04372676 -10.3125 10.265625 C-7.70969432 9.94521103 -7.70969432 9.94521103 -5.3125 9.265625 C-5.18875 8.151875 -5.065 7.038125 -4.9375 5.890625 C-4.00111421 0.45958744 -4.00111421 0.45958744 0 0 Z M0.6875 5.265625 C0.378125 7.1528125 0.378125 7.1528125 0.0625 9.078125 C-0.80464336 12.54669845 -1.0835973 13.09776302 -4.125 15.328125 C-7.47121231 16.31230509 -9.06197439 16.43942592 -12.3125 15.265625 C-12.9725 14.605625 -13.6325 13.945625 -14.3125 13.265625 C-16.42070797 13.5841427 -16.42070797 13.5841427 -18.3125 14.265625 C-18.003125 14.9875 -17.69375 15.709375 -17.375 16.453125 C-15.7730529 20.69357319 -14.93977139 22.99834771 -16.25 27.453125 C-19.17752838 31.44520915 -21.5135064 31.47890474 -26.3125 32.265625 C-25.9825 33.585625 -25.6525 34.905625 -25.3125 36.265625 C-22.6725 36.595625 -20.0325 36.925625 -17.3125 37.265625 C-16.89403991 38.84312924 -16.50353611 40.42806748 -16.125 42.015625 C-15.90457031 42.89734375 -15.68414062 43.7790625 -15.45703125 44.6875 C-15.27449647 47.94352575 -16.26245451 48.83904054 -18.3125 51.265625 C-18.09532648 53.47363028 -18.09532648 53.47363028 -17.3125 55.265625 C-16.77625 54.95625 -16.24 54.646875 -15.6875 54.328125 C-10.05010995 51.80613471 -6.09396482 52.29992696 -0.3125 54.265625 C0.0175 57.235625 0.3475 60.205625 0.6875 63.265625 C2.6675 62.770625 2.6675 62.770625 4.6875 62.265625 C4.72875 61.1725 4.77 60.079375 4.8125 58.953125 C5.6875 55.265625 5.6875 55.265625 8.375 53.265625 C13.65011386 51.6731378 16.93979769 52.89177385 21.6875 55.265625 C22.3475 54.935625 23.0075 54.605625 23.6875 54.265625 C22.59965032 51.01579365 22.59965032 51.01579365 20.6875 48.265625 C21.14670304 41.14797794 21.14670304 41.14797794 22.875 38.328125 C25.39589444 36.8503593 27.8099611 36.58535154 30.6875 36.265625 C30.6875 34.945625 30.6875 33.625625 30.6875 32.265625 C29.40875 32.03875 28.13 31.811875 26.8125 31.578125 C22.90256787 30.59718796 22.90256787 30.59718796 21.1875 27.953125 C20.67683435 25.20829712 20.3317826 23.04022075 20.6875 20.265625 C21.67481742 18.92287331 22.67344743 17.58830227 23.6875 16.265625 C23.1925 14.780625 23.1925 14.780625 22.6875 13.265625 C19.72574877 13.87840112 18.30691217 14.51935022 15.6875 16.265625 C11.75187563 15.95491781 8.72112377 14.79364481 5.6875 12.265625 C4.875 8.578125 4.875 8.578125 4.6875 5.265625 C3.3675 5.265625 2.0475 5.265625 0.6875 5.265625 Z " fill="#2B2A37" transform="translate(74.3125,304.734375)"/>
<path d="M0 0 C10.50821411 7.4022464 16.4029991 16.26316427 20.20703125 28.5546875 C20.53703125 29.5446875 20.86703125 30.5346875 21.20703125 31.5546875 C22.39375584 48.16883172 17.9561893 60.47076586 9.20703125 74.5546875 C8.79050293 75.23031738 8.37397461 75.90594727 7.94482422 76.60205078 C5.45682071 80.63259784 2.94168111 84.64523634 0.41113281 88.64916992 C-10.36637149 105.70481086 -20.60088752 122.76431649 -24.3762207 142.84741211 C-25.33501259 147.67555097 -26.82394258 150.72886821 -29.79296875 154.5546875 C-30.12296875 154.5546875 -30.45296875 154.5546875 -30.79296875 154.5546875 C-30.86773437 153.513125 -30.9425 152.4715625 -31.01953125 151.3984375 C-31.94780932 140.59480672 -34.42917114 131.45174297 -38.79296875 121.5546875 C-39.11104492 120.82652832 -39.42912109 120.09836914 -39.75683594 119.34814453 C-43.1462744 111.6712822 -46.61754328 104.24181337 -51.5 97.3828125 C-53.06450112 95.17076862 -54.36602962 92.83388561 -55.68359375 90.46875 C-57.04664568 88.11700547 -58.51023131 85.84097416 -59.98046875 83.5546875 C-81.38902285 50.01154347 -81.38902285 50.01154347 -77.14453125 28.2265625 C-73.02508795 14.77675616 -64.77467761 3.78252519 -52.50390625 -3.08984375 C-35.18088603 -11.75135386 -16.32266408 -10.60050236 0 0 Z M-63.90234375 10.140625 C-73.61204552 22.53854998 -75.35140842 35.29949609 -73.79296875 50.5546875 C-72.51269132 55.64956202 -70.41603297 60.03370239 -67.79296875 64.5546875 C-67.40141602 65.23708496 -67.00986328 65.91948242 -66.60644531 66.62255859 C-62.59549102 73.52723968 -58.32244651 80.25860296 -53.91796875 86.91796875 C-44.10671436 101.75681344 -36.98486022 116.91218346 -30.62744141 133.51855469 C-29.77910982 135.58850362 -28.81803396 137.56712237 -27.79296875 139.5546875 C-27.426875 138.37777344 -27.06078125 137.20085937 -26.68359375 135.98828125 C-20.1521391 115.78295717 -10.05398172 98.15377276 1.53344727 80.44360352 C6.75346528 72.42173402 11.31878322 64.29775369 15.20703125 55.5546875 C15.59246094 54.79800781 15.97789062 54.04132813 16.375 53.26171875 C19.48338103 43.14853541 18.48360634 29.40759091 13.7578125 20.0625 C6.6716405 8.60324957 -2.45155599 -0.08419121 -15.69018555 -4.00756836 C-33.43930231 -7.70246751 -51.36486802 -3.05940026 -63.90234375 10.140625 Z " fill="#130F10" transform="translate(396.79296875,81.4453125)"/>
<path d="M0 0 C5.20067397 12.78210091 5 28.61827677 5 42 C-7.54 42 -20.08 42 -33 42 C-31.87406827 30.74068274 -31.87406827 30.74068274 -30.14453125 26.78125 C-29.77303955 25.91604736 -29.40154785 25.05084473 -29.01879883 24.15942383 C-28.62072021 23.28181396 -28.2226416 22.4042041 -27.8125 21.5 C-27.19314575 20.1246106 -27.19314575 20.1246106 -26.5612793 18.72143555 C-25.74599817 16.93196121 -24.92253465 15.14618585 -24.08984375 13.36474609 C-23.1973514 11.42821362 -22.37028592 9.46164957 -21.5625 7.48828125 C-20.26545872 4.71180226 -19.34962335 2.97065184 -17 1 C-11.40466314 -0.76149494 -5.65405985 -1.88468662 0 0 Z " fill="#E7E7E9" transform="translate(406,181)"/>
<path d="M0 0 C13.90866781 -0.56163267 13.90866781 -0.56163267 18.08203125 2.5546875 C19.76735489 5.28423184 20.85122941 7.99805507 22 11 C22.74901175 12.71163436 23.50627789 14.41966862 24.26953125 16.125 C33 35.81975347 33 35.81975347 33 42 C20.13 42 7.26 42 -6 42 C-6 31.85260771 -6 31.85260771 -5.44921875 27.6953125 C-5.32909424 26.78668457 -5.20896973 25.87805664 -5.08520508 24.94189453 C-4.88834106 23.54753174 -4.88834106 23.54753174 -4.6875 22.125 C-4.55432373 21.16062012 -4.42114746 20.19624023 -4.28393555 19.20263672 C-3.33917117 12.65072067 -2.12077777 6.28712843 0 0 Z " fill="#FAFAFA" transform="translate(332,181)"/>
<path d="M0 0 C4.23134853 2.549759 7.57492032 5.06215515 9.42578125 9.7734375 C10.29987761 16.06693132 10.33489761 20.62851297 6.73828125 26.0234375 C1.32345753 31.36606357 -2.63563955 32.54898485 -10.13671875 32.50390625 C-15.27398424 31.71405168 -18.07876201 28.97297021 -21.26171875 25.0234375 C-24.10611101 20.63833277 -23.92092539 15.09363177 -23.26171875 10.0234375 C-18.80813196 1.11626391 -9.68887204 -4.1834508 0 0 Z " fill="#23212E" transform="translate(375.26171875,104.9765625)"/>
<path d="M0 0 C3.95008059 0.68379546 6.63457018 1.78843183 10 4 C9.40781716 9.01381468 7.12583757 12.89010234 4.75 17.25 C3.83899808 18.95006794 2.92888811 20.65061406 2.01953125 22.3515625 C1.28790771 23.71522949 1.28790771 23.71522949 0.54150391 25.10644531 C-2.20243133 30.25708207 -4.87813347 35.44314576 -7.5625 40.625 C-12.65866978 50.44331564 -17.80198394 60.23525148 -23 70 C-26.95008059 69.31620454 -29.63457018 68.21156817 -33 66 C-32.38241258 61.79768872 -30.93861982 58.58782824 -28.97265625 54.8359375 C-28.6681102 54.25055206 -28.36356415 53.66516663 -28.04978943 53.06204224 C-27.06001659 51.16316132 -26.06141938 49.26908281 -25.0625 47.375 C-24.37577514 46.06212445 -23.68958041 44.74897147 -23.00390625 43.43554688 C-21.31496174 40.20385828 -19.61890222 36.97597202 -17.92022705 33.74938965 C-16.61867373 31.275083 -15.32305306 28.79768336 -14.02734375 26.3203125 C-9.41417888 17.51304718 -4.73888576 8.74026281 0 0 Z " fill="#F9F9F9" transform="translate(199,344)"/>
<path d="M0 0 C0 12.54 0 25.08 0 38 C-11.33298576 34.76200407 -18.06830465 26.95832066 -24 17 C-30 6.11751663 -30 6.11751663 -30 2 C-19.75960869 0.00534987 -10.67199022 0 0 0 Z " fill="#FCFCFC" transform="translate(365,277)"/>
<path d="M0 0 C10.67199022 0 19.75960869 0.00534987 30 2 C26.11495917 14.3117491 19.34434993 27.92318435 8 35 C5.36 35.99 2.72 36.98 0 38 C0 25.46 0 12.92 0 0 Z " fill="#FCFCFC" transform="translate(373,277)"/>
<path d="M0 0 C5.51383399 4.41106719 5.51383399 4.41106719 7.875 7.3125 C11.5306005 11.6042072 15.49556305 15.53845903 19.5 19.5 C30.51923594 30.42218579 30.51923594 30.42218579 34 35 C34 35.33 34 35.66 34 36 C22.78 36 11.56 36 0 36 C0 24.12 0 12.24 0 0 Z " fill="#FCFCFD" transform="translate(135,295)"/>
<path d="M0 0 C-10.21437579 26.9703657 -10.21437579 26.9703657 -18 38 C-18.66 38.99 -19.32 39.98 -20 41 C-22.6015625 41.29296875 -22.6015625 41.29296875 -25.625 41.1875 C-27.12933594 41.14689453 -27.12933594 41.14689453 -28.6640625 41.10546875 C-29.43492187 41.07066406 -30.20578125 41.03585938 -31 41 C-30.55225405 33.77000397 -28.7673794 28.14646228 -25.8125 21.5625 C-25.40394775 20.64178711 -24.99539551 19.72107422 -24.57446289 18.77246094 C-23.4041747 16.17120534 -22.20896714 13.58346653 -21 11 C-20.18402344 9.24236328 -20.18402344 9.24236328 -19.3515625 7.44921875 C-16.25067511 1.53012155 -16.25067511 1.53012155 -13.1015625 0.1953125 C-8.81371572 -0.4782573 -4.33492069 0.01043302 0 0 Z " fill="#FBFBFB" transform="translate(404,181)"/>
<path d="M0 0 C3.57832961 1.37968585 6.3358943 3.271626 8.9375 6.125 C10.54686254 10.4797457 10.90271626 14.42955468 10 19 C7.97991861 22.4285785 5.58305829 25.20847086 2 27 C-3.14112877 27.5880376 -8.31516132 28.17453731 -12.5625 24.8125 C-15.89710615 20.96487752 -16.82619386 18.59322292 -17.375 13.5625 C-16.78688714 7.97542783 -14.40354499 5.18521577 -10.1875 1.625 C-6.33997539 -0.33648313 -4.27096387 -0.59943353 0 0 Z " fill="#2A2935" transform="translate(80,325)"/>
<path d="M0 0 C0.89009766 -0.00128906 1.78019531 -0.00257813 2.69726562 -0.00390625 C3.63376953 -0.00003906 4.57027344 0.00382812 5.53515625 0.0078125 C6.46779297 0.00394531 7.40042969 0.00007813 8.36132812 -0.00390625 C9.25271484 -0.00261719 10.14410156 -0.00132812 11.0625 0 C11.88355225 0.00112793 12.70460449 0.00225586 13.55053711 0.00341797 C15.59765625 0.1328125 15.59765625 0.1328125 17.59765625 1.1328125 C17.65555978 4.42440566 17.69121886 7.71586853 17.72265625 11.0078125 C17.73941406 11.94496094 17.75617188 12.88210938 17.7734375 13.84765625 C17.77988281 14.74355469 17.78632812 15.63945312 17.79296875 16.5625 C17.80344238 17.38991699 17.81391602 18.21733398 17.82470703 19.06982422 C17.59765625 21.1328125 17.59765625 21.1328125 15.59765625 23.1328125 C13.65820312 23.39160156 13.65820312 23.39160156 11.31640625 23.3984375 C10.47464844 23.40101563 9.63289063 23.40359375 8.765625 23.40625 C7.88519531 23.39851563 7.00476562 23.39078125 6.09765625 23.3828125 C4.77701172 23.39441406 4.77701172 23.39441406 3.4296875 23.40625 C2.58792969 23.40367187 1.74617188 23.40109375 0.87890625 23.3984375 C0.10611328 23.39618164 -0.66667969 23.39392578 -1.46289062 23.39160156 C-3.40234375 23.1328125 -3.40234375 23.1328125 -5.40234375 21.1328125 C-5.64526367 19.08569336 -5.64526367 19.08569336 -5.6328125 16.59765625 C-5.63087891 15.70626953 -5.62894531 14.81488281 -5.62695312 13.89648438 C-5.61470703 12.96384766 -5.60246094 12.03121094 -5.58984375 11.0703125 C-5.58919922 10.13380859 -5.58855469 9.19730469 -5.58789062 8.23242188 C-5.53428941 0.00761325 -5.53428941 0.00761325 0 0 Z " fill="#292834" transform="translate(50.40234375,388.8671875)"/>
<path d="M0 0 C1.40958984 -0.00193359 1.40958984 -0.00193359 2.84765625 -0.00390625 C3.83636719 -0.00003906 4.82507813 0.00382812 5.84375 0.0078125 C7.32681641 0.00201172 7.32681641 0.00201172 8.83984375 -0.00390625 C9.77957031 -0.00261719 10.71929687 -0.00132812 11.6875 0 C12.55568359 0.00112793 13.42386719 0.00225586 14.31835938 0.00341797 C16.34375 0.1328125 16.34375 0.1328125 17.34375 1.1328125 C17.44255797 2.60933914 17.47454245 4.09048486 17.4765625 5.5703125 C17.47849609 6.91222656 17.47849609 6.91222656 17.48046875 8.28125 C17.47660156 9.22226562 17.47273438 10.16328125 17.46875 11.1328125 C17.47455078 12.54433594 17.47455078 12.54433594 17.48046875 13.984375 C17.47917969 14.87898438 17.47789063 15.77359375 17.4765625 16.6953125 C17.47543457 17.52160156 17.47430664 18.34789062 17.47314453 19.19921875 C17.34375 21.1328125 17.34375 21.1328125 16.34375 22.1328125 C14.79419441 22.23180773 13.24021327 22.26360774 11.6875 22.265625 C10.27791016 22.26755859 10.27791016 22.26755859 8.83984375 22.26953125 C7.85113281 22.26566406 6.86242187 22.26179688 5.84375 22.2578125 C4.85503906 22.26167969 3.86632812 22.26554687 2.84765625 22.26953125 C1.90792969 22.26824219 0.96820313 22.26695312 0 22.265625 C-0.86818359 22.26449707 -1.73636719 22.26336914 -2.63085938 22.26220703 C-4.65625 22.1328125 -4.65625 22.1328125 -5.65625 21.1328125 C-5.75505797 19.65628586 -5.78704245 18.17514014 -5.7890625 16.6953125 C-5.79035156 15.80070312 -5.79164062 14.90609375 -5.79296875 13.984375 C-5.78716797 12.57285156 -5.78716797 12.57285156 -5.78125 11.1328125 C-5.78511719 10.19179688 -5.78898437 9.25078125 -5.79296875 8.28125 C-5.79167969 7.38664062 -5.79039063 6.49203125 -5.7890625 5.5703125 C-5.78737061 4.33087891 -5.78737061 4.33087891 -5.78564453 3.06640625 C-5.53103978 -0.73825341 -3.27931619 0.00426043 0 0 Z " fill="#22212E" transform="translate(50.65625,421.8671875)"/>
<path d="M0 0 C0.72703125 1.64935547 0.72703125 1.64935547 1.46875 3.33203125 C5.54462315 12.3871346 9.86922573 20.15688977 16 28 C16.495 28.99 16.495 28.99 17 30 C3.05499133 27.57916667 -10.95239954 18.80837188 -21 9 C-21 8.34 -21 7.68 -21 7 C-7.2238548 -0.13310285 -7.2238548 -0.13310285 0 0 Z " fill="#F8F8F8" transform="translate(328,282)"/>
<path d="M0 0 C7.54837521 0.51466195 14.2872604 3.6436302 21 7 C21 7.66 21 8.32 21 9 C14.25346119 15.26163134 6.85343379 20.44633139 -1.375 24.5625 C-2.01566406 24.88428223 -2.65632813 25.20606445 -3.31640625 25.53759766 C-7.7835039 27.66867955 -12.17074456 28.92385771 -17 30 C-16.45472656 29.19949219 -16.45472656 29.19949219 -15.8984375 28.3828125 C-9.73275657 19.24495718 -4.35834703 10.14376343 0 0 Z " fill="#F9F9F9" transform="translate(410,282)"/>
<path d="M0 0 C1.07458969 -0.00637985 2.14917938 -0.0127597 3.2563324 -0.01933289 C4.42608109 -0.02044571 5.59582977 -0.02155853 6.80102539 -0.02270508 C7.99345352 -0.02603348 9.18588165 -0.02936188 10.41444397 -0.03279114 C12.94230767 -0.03786549 15.47017809 -0.04019931 17.99804688 -0.04003906 C21.87844818 -0.04222493 25.7585651 -0.06037389 29.63891602 -0.0793457 C32.08878483 -0.08227956 34.538655 -0.08426441 36.98852539 -0.08520508 C38.74011208 -0.09598335 38.74011208 -0.09598335 40.52708435 -0.10697937 C42.14369713 -0.10236443 42.14369713 -0.10236443 43.79296875 -0.09765625 C45.22073891 -0.09979378 45.22073891 -0.09979378 46.67735291 -0.10197449 C48.96118164 0.14526367 48.96118164 0.14526367 50.96118164 2.14526367 C50.42546735 5.68097796 50.42546735 5.68097796 48.96118164 7.14526367 C47.27862929 7.24401537 45.59194136 7.27325271 43.90649414 7.2746582 C42.28976807 7.27938644 42.28976807 7.27938644 40.64038086 7.28421021 C39.46749512 7.28218597 38.29460937 7.28016174 37.08618164 7.27807617 C35.89138184 7.2790329 34.69658203 7.27998962 33.46557617 7.28097534 C30.93351184 7.28165738 28.40144577 7.27980145 25.86938477 7.27563477 C21.97806904 7.27028688 18.08686875 7.275579 14.19555664 7.28198242 C11.74243138 7.28132164 9.2893062 7.28004049 6.83618164 7.27807617 C5.6632959 7.2801004 4.49041016 7.28212463 3.28198242 7.28421021 C2.20416504 7.28105804 1.12634766 7.27790588 0.01586914 7.2746582 C-0.93819824 7.27386261 -1.89226562 7.27306702 -2.87524414 7.27224731 C-5.03881836 7.14526367 -5.03881836 7.14526367 -6.03881836 6.14526367 C-6.16381836 3.64526367 -6.16381836 3.64526367 -6.03881836 1.14526367 C-4.36146352 -0.53209117 -2.30142147 0.00922406 0 0 Z " fill="#32313D" transform="translate(86.038818359375,429.854736328125)"/>
<path d="M0 0 C7.71712984 2.87023075 15.3462854 7.96452332 21 14 C21 14.66 21 15.32 21 16 C18.81690366 16.99011443 16.62932734 17.96705568 14.4375 18.9375 C13.52387695 19.35418945 13.52387695 19.35418945 12.59179688 19.77929688 C8.36406963 21.63591783 4.59658658 22.53265079 0 23 C-4.97499153 13.325449 -4.97499153 13.325449 -5.0625 8.6875 C-3.77952841 5.44233656 -2.06814372 2.80200116 0 0 Z " fill="#F9F9F9" transform="translate(410,148)"/>
<path d="M0 0 C3.38681147 3.23913074 6.13474399 6.27838748 7 11 C5.84864863 15.2757003 4.05923734 19.09005569 2 23 C-5.85496312 22.69196223 -12.04059197 19.46909516 -19 16 C-15.93482656 8.41327237 -6.98228788 3.64293281 0 0 Z " fill="#F8F8F9" transform="translate(326,148)"/>
<path d="M0 0 C0.97484848 0.00222061 1.94969696 0.00444122 2.9540863 0.00672913 C4.05515213 0.00680466 5.15621796 0.00688019 6.29064941 0.00695801 C8.08749428 0.01469994 8.08749428 0.01469994 9.92063904 0.02259827 C11.14000656 0.02401321 12.35937408 0.02542816 13.61569214 0.02688599 C17.52856349 0.03250485 21.4413786 0.04506055 25.35423279 0.05775452 C27.99941426 0.06276709 30.64459662 0.06733041 33.28977966 0.07142639 C39.79045005 0.08248041 46.2910874 0.09923688 52.79173279 0.12025452 C53.41673279 1.99525452 53.41673279 1.99525452 53.79173279 4.12025452 C51.79173279 6.12025452 51.79173279 6.12025452 49.50117493 6.36076355 C48.54631195 6.35632233 47.59144897 6.3518811 46.60765076 6.3473053 C45.52668121 6.34715424 44.44571167 6.34700317 43.33198547 6.34684753 C42.16112396 6.33652496 40.99026245 6.32620239 39.78392029 6.31556702 C38.58816376 6.31273712 37.39240723 6.30990723 36.16041565 6.30699158 C32.3290876 6.29576756 28.49799057 6.27065883 24.66673279 6.24525452 C22.07428824 6.23522759 19.48184004 6.22610125 16.88938904 6.21791077 C10.52342437 6.19582098 4.15759508 6.16232158 -2.20826721 6.12025452 C-2.59045488 4.46410794 -2.92221823 2.79568427 -3.20826721 1.12025452 C-2.20826721 0.12025452 -2.20826721 0.12025452 0 0 Z " fill="#22212E" transform="translate(83.20826721191406,397.87974548339844)"/>
<path d="M0 0 C1 1 1 1 1 9 C-11.87 9 -24.74 9 -38 9 C-38 8.34 -38 7.68 -38 7 C-31.0024635 4.51133639 -24.01713767 2.7624954 -16.75 1.25 C-15.15671875 0.90001953 -15.15671875 0.90001953 -13.53125 0.54296875 C-12.50515625 0.32769531 -11.4790625 0.11242187 -10.421875 -0.109375 C-9.03887207 -0.40279785 -9.03887207 -0.40279785 -7.62792969 -0.70214844 C-4.81067986 -1.02145769 -2.72197664 -0.75670233 0 0 Z " fill="#F2F2F3" transform="translate(457,214)"/>
<path d="M0 0 C2.4375 1.625 2.4375 1.625 4 4 C4.61195145 7.6717087 4.48706506 9.28813568 2.375 12.375 C-0.71186432 14.48706506 -2.3282913 14.61195145 -6 14 C-8.375 12.4375 -8.375 12.4375 -10 10 C-10.42519574 6.53769185 -10.63902633 4.1652833 -8.9375 1.0625 C-5.8347167 -0.63902633 -3.46230815 -0.42519574 0 0 Z " fill="#F7F7F7" transform="translate(80,332)"/>
<path d="M0 0 C5.875 3.625 5.875 3.625 7 7 C4.81690366 7.99011443 2.62932734 8.96705568 0.4375 9.9375 C-0.17158203 10.21529297 -0.78066406 10.49308594 -1.40820312 10.77929688 C-5.63593037 12.63591783 -9.40341342 13.53265079 -14 14 C-12.51167917 10.41194006 -10.48442067 8.39869503 -7.5625 5.875 C-6.78003906 5.19179687 -5.99757813 4.50859375 -5.19140625 3.8046875 C-3 2 -3 2 0 0 Z " fill="#E6E6E7" transform="translate(424,157)"/>
<path d="M0 0 C3.63 0 7.26 0 11 0 C11 3.3 11 6.6 11 10 C7.37 10 3.74 10 0 10 C0 6.7 0 3.4 0 0 Z " fill="#EFEFF0" transform="translate(51,428)"/>
<path d="M0 0 C3.63 0 7.26 0 11 0 C11 2.97 11 5.94 11 9 C7.37 9 3.74 9 0 9 C0 6.03 0 3.06 0 0 Z " fill="#F4F4F5" transform="translate(51,396)"/>
<path d="M0 0 C4.95 0 9.9 0 15 0 C12.74402173 2.25597827 10.95396133 2.96574192 8 4.125 C7.113125 4.47820312 6.22625 4.83140625 5.3125 5.1953125 C3 6 3 6 1 6 C1 16.89 1 27.78 1 39 C0.67 39 0.34 39 0 39 C0 26.13 0 13.26 0 0 Z " fill="#C4C3C7" transform="translate(372,230)"/>
<path d="M0 0 C3.66881155 0.70554068 6.70450534 2.27735506 10 4 C9.34 5.98 8.68 7.96 8 10 C4.40608886 8.66511872 1.24509304 7.03977277 -2 5 C-1.34 3.35 -0.68 1.7 0 0 Z " fill="#EFEEEF" transform="translate(205,333)"/>
<path d="M0 0 C0.99 0 1.98 0 3 0 C2.67 1.65 2.34 3.3 2 5 C3.65 5.33 5.3 5.66 7 6 C7 6.99 7 7.98 7 9 C3.04 9 -0.92 9 -5 9 C-5 4.66314164 -2.91985986 3.0556673 0 0 Z " fill="#2E2D39" transform="translate(232,306)"/>
<path d="M0 0 C5.02237015 -0.29543354 7.9107578 -0.00679573 12 3 C13 4 13 4 13.09765625 5.84765625 C13.04882812 8.92382812 13.04882812 8.92382812 13 12 C12.01 12 11.02 12 10 12 C9.835 10.906875 9.67 9.81375 9.5 8.6875 C8.43130321 4.99455496 8.43130321 4.99455496 6.0859375 3.8671875 C4.07096447 3.13382276 2.0824625 2.50850828 0 2 C0 1.34 0 0.68 0 0 Z " fill="#32313D" transform="translate(227,286)"/>
<path d="M0 0 C0.66 0.33 1.32 0.66 2 1 C2.73075648 3.3140622 3.40138258 5.64828869 4 8 C-0.455 8.495 -0.455 8.495 -5 9 C-3.7508258 5.54074837 -2.32472205 2.85306797 0 0 Z " fill="#E2E2E3" transform="translate(399,166)"/>
<path d="M0 0 C0.33 0.99 0.66 1.98 1 3 C-2.3 3.66 -5.6 4.32 -9 5 C-9 3.68 -9 2.36 -9 1 C-5.92677456 0.08941469 -3.19902639 -0.08886184 0 0 Z " fill="#3F3E49" transform="translate(270,309)"/>
<path d="M0 0 C0.66 0 1.32 0 2 0 C3.38938077 1.96147874 4.7260411 3.96166576 6 6 C5.67 6.66 5.34 7.32 5 8 C2.69 7.67 0.38 7.34 -2 7 C-1.34 4.69 -0.68 2.38 0 0 Z " fill="#E5E5E6" transform="translate(337,167)"/>
<path d="M0 0 C0.33 0.99 0.66 1.98 1 3 C-2.96 4.98 -2.96 4.98 -7 7 C-7.66 6.01 -8.32 5.02 -9 4 C-2.25 0 -2.25 0 0 0 Z " fill="#3A3A45" transform="translate(222,317)"/>
<path d="M0 0 C0 0.66 0 1.32 0 2 C-5.29411765 6 -5.29411765 6 -9 6 C-8.8125 4.1875 -8.8125 4.1875 -8 2 C-3.744 -1.248 -3.744 -1.248 0 0 Z " fill="#34333F" transform="translate(285,303)"/>
<path d="M0 0 C0.99 0 1.98 0 3 0 C5.25 2.3125 5.25 2.3125 7 5 C6.67 5.99 6.34 6.98 6 8 C2.83884224 6.63016497 2.0072908 6.0109362 0 3 C0 2.01 0 1.02 0 0 Z " fill="#373641" transform="translate(218,302)"/>
<path d="M0 0 C1.98 0.99 3.96 1.98 6 3 C4.3545622 4.68762851 2.68711423 6.3540349 1 8 C0.67 8 0.34 8 0 8 C0 5.36 0 2.72 0 0 Z " fill="#F4F4F4" transform="translate(164,416)"/>
<path d="M0 0 C2.97 0 5.94 0 9 0 C9 0.99 9 1.98 9 3 C6.03 3 3.06 3 0 3 C0 2.01 0 1.02 0 0 Z " fill="#22212E" transform="translate(183,326)"/>
<path d="M0 0 C2.97 0 5.94 0 9 0 C9 0.99 9 1.98 9 3 C6.03 3 3.06 3 0 3 C0 2.01 0 1.02 0 0 Z " fill="#272632" transform="translate(246,312)"/>
<path d="M0 0 C0.99 0.33 1.98 0.66 3 1 C1.02 3.31 -0.96 5.62 -3 8 C-3.66 7.67 -4.32 7.34 -5 7 C-3.70700306 4.11562221 -2.34058637 2.12780579 0 0 Z " fill="#22212D" transform="translate(294,292)"/>
<path d="M0 0 C0.99 0 1.98 0 3 0 C2.38722388 2.96175123 1.74627478 4.38058783 0 7 C-0.99 7 -1.98 7 -3 7 C-2.38722388 4.03824877 -1.74627478 2.61941217 0 0 Z " fill="#373642" transform="translate(220,290)"/>
</svg>
